<svg xmlns="http://www.w3.org/2000/svg" xmlns:xlink="http://www.w3.org/1999/xlink" width="1920" zoomAndPan="magnify" viewBox="0 0 1440 809.999993" height="1080" preserveAspectRatio="xMidYMid meet" version="1.0"><defs><g/><clipPath id="5de7bd650d"><path d="M 606.402344 54.261719 L 760 54.261719 L 760 198 L 606.402344 198 Z M 606.402344 54.261719 " clip-rule="nonzero"/></clipPath><clipPath id="3a068d2153"><path d="M 687 277 L 833.652344 277 L 833.652344 420 L 687 420 Z M 687 277 " clip-rule="nonzero"/></clipPath></defs><g clip-path="url(#5de7bd650d)"><path fill="#0b406a" d="M 725.074219 54.261719 C 735.445312 54.507812 744.824219 59.101562 751.171875 67.339844 C 759.921875 78.539062 762.710938 94.800781 755.476562 106.929688 C 753.691406 110.152344 751.292969 113.253906 748.679688 115.921875 C 738.984375 125.96875 726.3125 129.378906 713.324219 125.007812 C 711.453125 124.421875 709.5 123.765625 707.710938 123.472656 C 704.105469 122.78125 701.0625 123.9375 698.480469 126.308594 C 696.617188 127.96875 694.847656 129.742188 692.871094 131.269531 C 687.769531 135.410156 682.15625 138.964844 679.273438 144.929688 C 676.492188 150.625 678.191406 156.222656 679.105469 162.417969 C 680.527344 180.445312 662.882812 196 645.714844 197.316406 C 624.847656 199.128906 606.277344 181.679688 606.53125 160.789062 C 606.316406 137.8125 632.050781 117.730469 653.945312 126.972656 C 657.386719 128.40625 661.132812 130.613281 664.914062 130.578125 C 669.914062 130.644531 673.269531 126.992188 676.816406 123.730469 C 678.65625 122.070312 680.703125 120.628906 682.613281 119.058594 C 689.039062 113.984375 691.210938 108.359375 689.117188 100.121094 C 680.765625 77.109375 699.277344 54.359375 724.992188 54.261719 Z M 725.074219 54.261719 " fill-opacity="1" fill-rule="nonzero"/></g><g clip-path="url(#3a068d2153)"><path fill="#0b406a" d="M 687.101562 385.042969 C 686.863281 358.050781 714.226562 339.375 737.425781 350.4375 C 738.894531 351.015625 740.402344 351.566406 741.800781 351.863281 C 747.296875 353.171875 750.394531 349.859375 754.121094 346.371094 C 755.484375 345.148438 756.933594 344.097656 758.445312 342.972656 C 768.035156 336.160156 765.59375 331.492188 762.007812 321.890625 C 755.347656 301.214844 773.527344 278.570312 794.523438 277.53125 C 815.273438 275.710938 834.265625 293.855469 833.441406 314.644531 C 832.746094 337.550781 809.769531 355.609375 787.867188 348.292969 C 785.226562 347.617188 782.058594 347.277344 779.695312 347.859375 C 774.011719 349.035156 770.585938 354.128906 766.132812 357.480469 C 761.371094 360.867188 756.816406 364.273438 757.320312 370.910156 C 757.40625 372.625 757.816406 374.546875 758.246094 376.375 C 762.652344 391.039062 755.4375 405.4375 742.757812 413.746094 C 732.640625 420.683594 720.621094 422.058594 708.859375 416.609375 C 696.199219 411.078125 687.117188 399.128906 687.097656 385.121094 L 687.097656 385.039062 Z M 687.101562 385.042969 " fill-opacity="1" fill-rule="nonzero"/></g><path fill="#0b406a" d="M 722.773438 270.613281 C 704.25 270.484375 688.484375 255.605469 687.1875 237.175781 C 685.34375 215.398438 704.257812 196.34375 725.933594 198.261719 C 739.246094 199.203125 751.34375 208.050781 756.53125 220.296875 C 766.855469 243.96875 748.726562 270.988281 722.84375 270.617188 L 722.765625 270.617188 Z M 722.773438 270.613281 " fill-opacity="1" fill-rule="nonzero"/><g fill="#0b406a" fill-opacity="1"><g transform="translate(54.718487, 731.858955)"><g><path d="M 120.40625 -46.484375 C 120.40625 -40.703125 119.519531 -34.960938 117.75 -29.265625 C 115.988281 -23.566406 112.898438 -18.390625 108.484375 -13.734375 C 104.078125 -9.078125 98.019531 -5.34375 90.3125 -2.53125 C 82.601562 0.28125 72.804688 1.6875 60.921875 1.6875 C 52.578125 1.6875 45.15625 1.320312 38.65625 0.59375 C 32.15625 -0.125 26.253906 -0.882812 20.953125 -1.6875 C 18.867188 -2.007812 17.582031 -2.488281 17.09375 -3.125 C 16.613281 -3.769531 16.375 -4.734375 16.375 -6.015625 L 16.375 -15.65625 C 16.375 -16.9375 16.773438 -17.894531 17.578125 -18.53125 C 18.378906 -19.175781 19.34375 -19.5 20.46875 -19.5 C 20.632812 -19.5 20.753906 -19.5 20.828125 -19.5 C 20.910156 -19.5 21.03125 -19.5 21.1875 -19.5 C 26.8125 -19.019531 33.472656 -18.660156 41.171875 -18.421875 C 48.878906 -18.179688 55.460938 -18.0625 60.921875 -18.0625 C 70.554688 -18.0625 78.023438 -19.265625 83.328125 -21.671875 C 88.628906 -24.078125 92.320312 -27.40625 94.40625 -31.65625 C 96.488281 -35.914062 97.53125 -40.859375 97.53125 -46.484375 C 97.53125 -50.492188 96.644531 -54.101562 94.875 -57.3125 C 93.113281 -60.53125 90.144531 -63.78125 85.96875 -67.0625 C 81.800781 -70.351562 76.023438 -74.25 68.640625 -78.75 L 45.28125 -92.953125 C 34.195312 -99.703125 25.882812 -106.488281 20.34375 -113.3125 C 14.8125 -120.132812 12.046875 -128.363281 12.046875 -138 C 12.046875 -152.601562 17.0625 -163.359375 27.09375 -170.265625 C 37.125 -177.171875 51.289062 -180.625 69.59375 -180.625 C 74.414062 -180.625 79.472656 -180.503906 84.765625 -180.265625 C 90.066406 -180.023438 95.082031 -179.660156 99.8125 -179.171875 C 104.550781 -178.691406 108.445312 -178.210938 111.5 -177.734375 C 114.226562 -177.253906 115.59375 -175.890625 115.59375 -173.640625 L 115.59375 -163.28125 C 115.59375 -160.707031 114.226562 -159.421875 111.5 -159.421875 C 111.34375 -159.421875 111.265625 -159.421875 111.265625 -159.421875 C 111.265625 -159.421875 111.179688 -159.421875 111.015625 -159.421875 C 105.722656 -159.742188 99.265625 -160.066406 91.640625 -160.390625 C 84.015625 -160.710938 76.664062 -160.875 69.59375 -160.875 C 57.238281 -160.875 48.25 -159.265625 42.625 -156.046875 C 37.007812 -152.835938 34.203125 -146.820312 34.203125 -138 C 34.203125 -132.375 36.285156 -127.515625 40.453125 -123.421875 C 44.628906 -119.328125 51.296875 -114.472656 60.453125 -108.859375 L 82.609375 -95.609375 C 96.578125 -87.253906 106.367188 -79.382812 111.984375 -72 C 117.597656 -64.613281 120.40625 -56.109375 120.40625 -46.484375 Z M 120.40625 -46.484375 "/></g></g></g><g fill="#0b406a" fill-opacity="1"><g transform="translate(187.169861, 731.858955)"><g><path d="M 133.65625 -164 C 133.65625 -161.4375 132.128906 -160.15625 129.078125 -160.15625 L 82.125 -160.15625 L 82.125 -4.8125 C 82.125 -3.6875 81.722656 -2.601562 80.921875 -1.5625 C 80.117188 -0.519531 79.070312 0 77.78125 0 L 64.546875 0 C 63.421875 0 62.414062 -0.476562 61.53125 -1.4375 C 60.644531 -2.40625 60.203125 -3.53125 60.203125 -4.8125 L 60.203125 -160.15625 L 13.25 -160.15625 C 11.957031 -160.15625 10.828125 -160.472656 9.859375 -161.109375 C 8.898438 -161.753906 8.421875 -162.71875 8.421875 -164 L 8.421875 -174.59375 C 8.421875 -175.882812 8.898438 -176.929688 9.859375 -177.734375 C 10.828125 -178.535156 11.957031 -178.9375 13.25 -178.9375 L 129.078125 -178.9375 C 132.128906 -178.9375 133.65625 -177.488281 133.65625 -174.59375 Z M 133.65625 -164 "/></g></g></g><g fill="#0b406a" fill-opacity="1"><g transform="translate(329.254045, 731.858955)"><g><path d="M 144.734375 -73.9375 C 144.734375 -56.113281 141.921875 -41.660156 136.296875 -30.578125 C 130.679688 -19.503906 123.015625 -11.359375 113.296875 -6.140625 C 103.585938 -0.921875 92.394531 1.6875 79.71875 1.6875 C 67.1875 1.6875 55.984375 -0.921875 46.109375 -6.140625 C 36.242188 -11.359375 28.5 -19.503906 22.875 -30.578125 C 17.257812 -41.660156 14.453125 -56.113281 14.453125 -73.9375 L 14.453125 -105 C 14.453125 -122.820312 17.257812 -137.269531 22.875 -148.34375 C 28.5 -159.425781 36.242188 -167.578125 46.109375 -172.796875 C 55.984375 -178.015625 67.1875 -180.625 79.71875 -180.625 C 92.394531 -180.625 103.585938 -178.015625 113.296875 -172.796875 C 123.015625 -167.578125 130.679688 -159.425781 136.296875 -148.34375 C 141.921875 -137.269531 144.734375 -122.820312 144.734375 -105 Z M 122.578125 -73.9375 L 122.578125 -105 C 122.578125 -125.226562 118.765625 -139.597656 111.140625 -148.109375 C 103.515625 -156.617188 93.039062 -160.875 79.71875 -160.875 C 66.550781 -160.875 56.070312 -156.617188 48.28125 -148.109375 C 40.5 -139.597656 36.609375 -125.226562 36.609375 -105 L 36.609375 -73.9375 C 36.609375 -53.707031 40.5 -39.335938 48.28125 -30.828125 C 56.070312 -22.316406 66.550781 -18.0625 79.71875 -18.0625 C 92.882812 -18.0625 103.316406 -22.316406 111.015625 -30.828125 C 118.722656 -39.335938 122.578125 -53.707031 122.578125 -73.9375 Z M 122.578125 -73.9375 "/></g></g></g><g fill="#0b406a" fill-opacity="1"><g transform="translate(488.436502, 731.858955)"><g><path d="M 144.984375 -4.8125 C 144.984375 -3.53125 144.5 -2.40625 143.53125 -1.4375 C 142.570312 -0.476562 141.445312 0 140.15625 0 L 127.875 0 C 126.59375 0 125.46875 -0.476562 124.5 -1.4375 C 123.539062 -2.40625 123.0625 -3.53125 123.0625 -4.8125 L 123.0625 -84.765625 L 40.703125 -84.765625 L 40.703125 -4.8125 C 40.703125 -3.53125 40.21875 -2.40625 39.25 -1.4375 C 38.289062 -0.476562 37.171875 0 35.890625 0 L 23.59375 0 C 22.3125 0 21.1875 -0.476562 20.21875 -1.4375 C 19.257812 -2.40625 18.78125 -3.53125 18.78125 -4.8125 L 18.78125 -174.125 C 18.78125 -175.40625 19.257812 -176.523438 20.21875 -177.484375 C 21.1875 -178.453125 22.3125 -178.9375 23.59375 -178.9375 L 35.890625 -178.9375 C 37.171875 -178.9375 38.289062 -178.453125 39.25 -177.484375 C 40.21875 -176.523438 40.703125 -175.40625 40.703125 -174.125 L 40.703125 -104.28125 L 123.0625 -104.28125 L 123.0625 -174.125 C 123.0625 -175.40625 123.539062 -176.523438 124.5 -177.484375 C 125.46875 -178.453125 126.59375 -178.9375 127.875 -178.9375 L 140.15625 -178.9375 C 141.445312 -178.9375 142.570312 -178.453125 143.53125 -177.484375 C 144.5 -176.523438 144.984375 -175.40625 144.984375 -174.125 Z M 144.984375 -4.8125 "/></g></g></g><g fill="#0b406a" fill-opacity="1"><g transform="translate(652.194575, 731.858955)"><g><path d="M 142.5625 -4.8125 C 142.5625 -3.6875 142.160156 -2.601562 141.359375 -1.5625 C 140.554688 -0.519531 139.515625 0 138.234375 0 L 124.75 0 C 123.625 0 122.660156 -0.476562 121.859375 -1.4375 C 121.054688 -2.40625 120.65625 -3.53125 120.65625 -4.8125 L 120.65625 -111.265625 C 120.65625 -125.234375 119.046875 -135.828125 115.828125 -143.046875 C 112.617188 -150.273438 107.722656 -155.171875 101.140625 -157.734375 C 94.566406 -160.304688 86.300781 -161.59375 76.34375 -161.59375 C 72.96875 -161.59375 68.867188 -161.507812 64.046875 -161.34375 C 59.234375 -161.1875 54.660156 -160.988281 50.328125 -160.75 C 45.992188 -160.507812 42.785156 -160.3125 40.703125 -160.15625 L 40.703125 -4.8125 C 40.703125 -3.6875 40.300781 -2.601562 39.5 -1.5625 C 38.695312 -0.519531 37.648438 0 36.359375 0 L 23.125 0 C 21.832031 0 20.785156 -0.476562 19.984375 -1.4375 C 19.179688 -2.40625 18.78125 -3.53125 18.78125 -4.8125 L 18.78125 -169.546875 C 18.78125 -172.597656 19.300781 -174.679688 20.34375 -175.796875 C 21.394531 -176.921875 23.125 -177.644531 25.53125 -177.96875 C 29.863281 -178.613281 35.238281 -179.132812 41.65625 -179.53125 C 48.082031 -179.9375 54.546875 -180.257812 61.046875 -180.5 C 67.546875 -180.738281 72.804688 -180.859375 76.828125 -180.859375 C 91.273438 -180.859375 103.394531 -178.769531 113.1875 -174.59375 C 122.976562 -170.425781 130.320312 -163.285156 135.21875 -153.171875 C 140.113281 -143.054688 142.5625 -129.085938 142.5625 -111.265625 Z M 142.5625 -4.8125 "/></g></g></g><g fill="#0b406a" fill-opacity="1"><g transform="translate(811.617841, 731.858955)"><g/></g></g><g fill="#0b406a" fill-opacity="1"><g transform="translate(871.100583, 731.858955)"><g><path d="M 122.828125 -6.265625 C 122.828125 -4.816406 122.34375 -3.726562 121.375 -3 C 120.414062 -2.28125 119.289062 -1.757812 118 -1.4375 C 113.03125 -0.476562 107.691406 0.28125 101.984375 0.84375 C 96.285156 1.40625 88.300781 1.6875 78.03125 1.6875 C 70.644531 1.6875 63.21875 0.523438 55.75 -1.796875 C 48.28125 -4.128906 41.414062 -8.066406 35.15625 -13.609375 C 28.894531 -19.148438 23.878906 -26.734375 20.109375 -36.359375 C 16.335938 -45.992188 14.453125 -58.117188 14.453125 -72.734375 L 14.453125 -106.203125 C 14.453125 -120.972656 16.335938 -133.175781 20.109375 -142.8125 C 23.878906 -152.445312 28.894531 -160.03125 35.15625 -165.5625 C 41.414062 -171.101562 48.28125 -175 55.75 -177.25 C 63.21875 -179.5 70.644531 -180.625 78.03125 -180.625 C 85.570312 -180.625 92.875 -180.179688 99.9375 -179.296875 C 107.007812 -178.410156 113.191406 -177.566406 118.484375 -176.765625 C 121.054688 -176.441406 122.34375 -175.398438 122.34375 -173.640625 L 122.34375 -161.359375 C 122.34375 -159.585938 121.378906 -158.703125 119.453125 -158.703125 C 119.285156 -158.703125 119.160156 -158.703125 119.078125 -158.703125 C 119.003906 -158.703125 118.890625 -158.703125 118.734375 -158.703125 C 115.835938 -159.023438 112.101562 -159.347656 107.53125 -159.671875 C 102.957031 -159.992188 98.097656 -160.273438 92.953125 -160.515625 C 87.816406 -160.753906 82.921875 -160.875 78.265625 -160.875 C 70.398438 -160.875 63.296875 -159.144531 56.953125 -155.6875 C 50.609375 -152.238281 45.585938 -146.539062 41.890625 -138.59375 C 38.203125 -130.644531 36.359375 -119.847656 36.359375 -106.203125 L 36.359375 -72.734375 C 36.359375 -59.242188 38.203125 -48.523438 41.890625 -40.578125 C 45.585938 -32.628906 50.609375 -26.890625 56.953125 -23.359375 C 63.296875 -19.828125 70.398438 -18.0625 78.265625 -18.0625 C 85.171875 -18.0625 92.4375 -18.300781 100.0625 -18.78125 C 107.6875 -19.257812 113.664062 -19.660156 118 -19.984375 C 118.164062 -19.984375 118.328125 -19.984375 118.484375 -19.984375 C 118.648438 -19.984375 118.8125 -19.984375 118.96875 -19.984375 C 121.539062 -19.984375 122.828125 -18.703125 122.828125 -16.140625 Z M 122.828125 -6.265625 "/></g></g></g><g fill="#0b406a" fill-opacity="1"><g transform="translate(1002.347805, 731.858955)"><g><path d="M 144.734375 -73.9375 C 144.734375 -56.113281 141.921875 -41.660156 136.296875 -30.578125 C 130.679688 -19.503906 123.015625 -11.359375 113.296875 -6.140625 C 103.585938 -0.921875 92.394531 1.6875 79.71875 1.6875 C 67.1875 1.6875 55.984375 -0.921875 46.109375 -6.140625 C 36.242188 -11.359375 28.5 -19.503906 22.875 -30.578125 C 17.257812 -41.660156 14.453125 -56.113281 14.453125 -73.9375 L 14.453125 -105 C 14.453125 -122.820312 17.257812 -137.269531 22.875 -148.34375 C 28.5 -159.425781 36.242188 -167.578125 46.109375 -172.796875 C 55.984375 -178.015625 67.1875 -180.625 79.71875 -180.625 C 92.394531 -180.625 103.585938 -178.015625 113.296875 -172.796875 C 123.015625 -167.578125 130.679688 -159.425781 136.296875 -148.34375 C 141.921875 -137.269531 144.734375 -122.820312 144.734375 -105 Z M 122.578125 -73.9375 L 122.578125 -105 C 122.578125 -125.226562 118.765625 -139.597656 111.140625 -148.109375 C 103.515625 -156.617188 93.039062 -160.875 79.71875 -160.875 C 66.550781 -160.875 56.070312 -156.617188 48.28125 -148.109375 C 40.5 -139.597656 36.609375 -125.226562 36.609375 -105 L 36.609375 -73.9375 C 36.609375 -53.707031 40.5 -39.335938 48.28125 -30.828125 C 56.070312 -22.316406 66.550781 -18.0625 79.71875 -18.0625 C 92.882812 -18.0625 103.316406 -22.316406 111.015625 -30.828125 C 118.722656 -39.335938 122.578125 -53.707031 122.578125 -73.9375 Z M 122.578125 -73.9375 "/></g></g></g><g fill="#0b406a" fill-opacity="1"><g transform="translate(1161.530263, 731.858955)"><g><path d="M 43.109375 -4.8125 C 43.109375 -3.6875 42.707031 -2.601562 41.90625 -1.5625 C 41.101562 -0.519531 40.054688 0 38.765625 0 L 25.53125 0 C 24.40625 0 23.398438 -0.476562 22.515625 -1.4375 C 21.628906 -2.40625 21.1875 -3.53125 21.1875 -4.8125 L 21.1875 -174.359375 C 21.1875 -175.640625 21.585938 -176.722656 22.390625 -177.609375 C 23.191406 -178.492188 24.238281 -178.9375 25.53125 -178.9375 L 38.765625 -178.9375 C 41.660156 -178.9375 43.109375 -177.410156 43.109375 -174.359375 Z M 43.109375 -4.8125 "/></g></g></g><g fill="#0b406a" fill-opacity="1"><g transform="translate(1225.829391, 731.858955)"><g><path d="M 142.5625 -4.8125 C 142.5625 -3.6875 142.160156 -2.601562 141.359375 -1.5625 C 140.554688 -0.519531 139.515625 0 138.234375 0 L 124.75 0 C 123.625 0 122.660156 -0.476562 121.859375 -1.4375 C 121.054688 -2.40625 120.65625 -3.53125 120.65625 -4.8125 L 120.65625 -111.265625 C 120.65625 -125.234375 119.046875 -135.828125 115.828125 -143.046875 C 112.617188 -150.273438 107.722656 -155.171875 101.140625 -157.734375 C 94.566406 -160.304688 86.300781 -161.59375 76.34375 -161.59375 C 72.96875 -161.59375 68.867188 -161.507812 64.046875 -161.34375 C 59.234375 -161.1875 54.660156 -160.988281 50.328125 -160.75 C 45.992188 -160.507812 42.785156 -160.3125 40.703125 -160.15625 L 40.703125 -4.8125 C 40.703125 -3.6875 40.300781 -2.601562 39.5 -1.5625 C 38.695312 -0.519531 37.648438 0 36.359375 0 L 23.125 0 C 21.832031 0 20.785156 -0.476562 19.984375 -1.4375 C 19.179688 -2.40625 18.78125 -3.53125 18.78125 -4.8125 L 18.78125 -169.546875 C 18.78125 -172.597656 19.300781 -174.679688 20.34375 -175.796875 C 21.394531 -176.921875 23.125 -177.644531 25.53125 -177.96875 C 29.863281 -178.613281 35.238281 -179.132812 41.65625 -179.53125 C 48.082031 -179.9375 54.546875 -180.257812 61.046875 -180.5 C 67.546875 -180.738281 72.804688 -180.859375 76.828125 -180.859375 C 91.273438 -180.859375 103.394531 -178.769531 113.1875 -174.59375 C 122.976562 -170.425781 130.320312 -163.285156 135.21875 -153.171875 C 140.113281 -143.054688 142.5625 -129.085938 142.5625 -111.265625 Z M 142.5625 -4.8125 "/></g></g></g></svg>