<svg xmlns="http://www.w3.org/2000/svg" xmlns:xlink="http://www.w3.org/1999/xlink" width="1920" zoomAndPan="magnify" viewBox="0 0 1440 809.999993" height="1080" preserveAspectRatio="xMidYMid meet" version="1.0"><defs><g/><clipPath id="837471fc9e"><path d="M 54 255.261719 L 180 255.261719 L 180 373 L 54 373 Z M 54 255.261719 " clip-rule="nonzero"/></clipPath><clipPath id="0de0a30803"><path d="M 120 437 L 239.710938 437 L 239.710938 555 L 120 555 Z M 120 437 " clip-rule="nonzero"/></clipPath></defs><g fill="#0b406a" fill-opacity="1"><g transform="translate(296.446134, 467.95518)"><g><path d="M 98.609375 -38.0625 C 98.609375 -33.332031 97.882812 -28.628906 96.4375 -23.953125 C 94.988281 -19.285156 92.457031 -15.046875 88.84375 -11.234375 C 85.226562 -7.421875 80.265625 -4.363281 73.953125 -2.0625 C 67.640625 0.226562 59.617188 1.375 49.890625 1.375 C 43.054688 1.375 36.976562 1.078125 31.65625 0.484375 C 26.332031 -0.0976562 21.5 -0.71875 17.15625 -1.375 C 15.445312 -1.644531 14.394531 -2.039062 14 -2.5625 C 13.601562 -3.09375 13.40625 -3.882812 13.40625 -4.9375 L 13.40625 -12.8125 C 13.40625 -13.863281 13.734375 -14.648438 14.390625 -15.171875 C 15.054688 -15.703125 15.847656 -15.96875 16.765625 -15.96875 C 16.890625 -15.96875 16.984375 -15.96875 17.046875 -15.96875 C 17.117188 -15.96875 17.222656 -15.96875 17.359375 -15.96875 C 21.960938 -15.582031 27.414062 -15.289062 33.71875 -15.09375 C 40.03125 -14.894531 45.421875 -14.796875 49.890625 -14.796875 C 57.785156 -14.796875 63.898438 -15.78125 68.234375 -17.75 C 72.578125 -19.71875 75.601562 -22.441406 77.3125 -25.921875 C 79.019531 -29.410156 79.875 -33.457031 79.875 -38.0625 C 79.875 -41.351562 79.148438 -44.3125 77.703125 -46.9375 C 76.253906 -49.5625 73.820312 -52.222656 70.40625 -54.921875 C 66.988281 -57.617188 62.253906 -60.804688 56.203125 -64.484375 L 37.078125 -76.125 C 28.003906 -81.644531 21.195312 -87.195312 16.65625 -92.78125 C 12.125 -98.375 9.859375 -105.113281 9.859375 -113 C 9.859375 -124.96875 13.96875 -133.773438 22.1875 -139.421875 C 30.40625 -145.078125 42.007812 -147.90625 57 -147.90625 C 60.9375 -147.90625 65.070312 -147.804688 69.40625 -147.609375 C 73.75 -147.421875 77.859375 -147.128906 81.734375 -146.734375 C 85.617188 -146.335938 88.8125 -145.941406 91.3125 -145.546875 C 93.550781 -145.148438 94.671875 -144.03125 94.671875 -142.1875 L 94.671875 -133.71875 C 94.671875 -131.613281 93.550781 -130.5625 91.3125 -130.5625 C 91.175781 -130.5625 91.109375 -130.5625 91.109375 -130.5625 C 91.109375 -130.5625 91.046875 -130.5625 90.921875 -130.5625 C 86.578125 -130.820312 81.28125 -131.082031 75.03125 -131.34375 C 68.789062 -131.601562 62.78125 -131.734375 57 -131.734375 C 46.875 -131.734375 39.507812 -130.421875 34.90625 -127.796875 C 30.300781 -125.171875 28 -120.238281 28 -113 C 28 -108.40625 29.707031 -104.429688 33.125 -101.078125 C 36.550781 -97.722656 42.007812 -93.742188 49.5 -89.140625 L 67.640625 -78.296875 C 79.078125 -71.460938 87.097656 -65.019531 91.703125 -58.96875 C 96.304688 -52.914062 98.609375 -45.945312 98.609375 -38.0625 Z M 98.609375 -38.0625 "/></g></g></g><g fill="#0b406a" fill-opacity="1"><g transform="translate(404.911285, 467.95518)"><g><path d="M 109.453125 -134.3125 C 109.453125 -132.207031 108.203125 -131.15625 105.703125 -131.15625 L 67.25 -131.15625 L 67.25 -3.9375 C 67.25 -3.019531 66.921875 -2.132812 66.265625 -1.28125 C 65.609375 -0.425781 64.753906 0 63.703125 0 L 52.859375 0 C 51.929688 0 51.101562 -0.390625 50.375 -1.171875 C 49.65625 -1.960938 49.296875 -2.882812 49.296875 -3.9375 L 49.296875 -131.15625 L 10.84375 -131.15625 C 9.789062 -131.15625 8.867188 -131.414062 8.078125 -131.9375 C 7.296875 -132.46875 6.90625 -133.257812 6.90625 -134.3125 L 6.90625 -142.984375 C 6.90625 -144.035156 7.296875 -144.890625 8.078125 -145.546875 C 8.867188 -146.203125 9.789062 -146.53125 10.84375 -146.53125 L 105.703125 -146.53125 C 108.203125 -146.53125 109.453125 -145.347656 109.453125 -142.984375 Z M 109.453125 -134.3125 "/></g></g></g><g fill="#0b406a" fill-opacity="1"><g transform="translate(521.264797, 467.95518)"><g><path d="M 118.53125 -60.546875 C 118.53125 -45.953125 116.226562 -34.117188 111.625 -25.046875 C 107.019531 -15.972656 100.738281 -9.300781 92.78125 -5.03125 C 84.832031 -0.757812 75.664062 1.375 65.28125 1.375 C 55.019531 1.375 45.847656 -0.757812 37.765625 -5.03125 C 29.679688 -9.300781 23.335938 -15.972656 18.734375 -25.046875 C 14.128906 -34.117188 11.828125 -45.953125 11.828125 -60.546875 L 11.828125 -85.984375 C 11.828125 -100.578125 14.128906 -112.410156 18.734375 -121.484375 C 23.335938 -130.554688 29.679688 -137.226562 37.765625 -141.5 C 45.847656 -145.769531 55.019531 -147.90625 65.28125 -147.90625 C 75.664062 -147.90625 84.832031 -145.769531 92.78125 -141.5 C 100.738281 -137.226562 107.019531 -130.554688 111.625 -121.484375 C 116.226562 -112.410156 118.53125 -100.578125 118.53125 -85.984375 Z M 100.390625 -60.546875 L 100.390625 -85.984375 C 100.390625 -102.554688 97.265625 -114.320312 91.015625 -121.28125 C 84.773438 -128.25 76.195312 -131.734375 65.28125 -131.734375 C 54.5 -131.734375 45.921875 -128.25 39.546875 -121.28125 C 33.171875 -114.320312 29.984375 -102.554688 29.984375 -85.984375 L 29.984375 -60.546875 C 29.984375 -43.984375 33.171875 -32.21875 39.546875 -25.25 C 45.921875 -18.28125 54.5 -14.796875 65.28125 -14.796875 C 76.0625 -14.796875 84.609375 -18.28125 90.921875 -25.25 C 97.234375 -32.21875 100.390625 -43.984375 100.390625 -60.546875 Z M 100.390625 -60.546875 "/></g></g></g><g fill="#0b406a" fill-opacity="1"><g transform="translate(651.620179, 467.95518)"><g><path d="M 118.71875 -3.9375 C 118.71875 -2.882812 118.320312 -1.960938 117.53125 -1.171875 C 116.75 -0.390625 115.832031 0 114.78125 0 L 104.71875 0 C 103.664062 0 102.742188 -0.390625 101.953125 -1.171875 C 101.171875 -1.960938 100.78125 -2.882812 100.78125 -3.9375 L 100.78125 -69.421875 L 33.328125 -69.421875 L 33.328125 -3.9375 C 33.328125 -2.882812 32.929688 -1.960938 32.140625 -1.171875 C 31.359375 -0.390625 30.441406 0 29.390625 0 L 19.328125 0 C 18.273438 0 17.351562 -0.390625 16.5625 -1.171875 C 15.78125 -1.960938 15.390625 -2.882812 15.390625 -3.9375 L 15.390625 -142.59375 C 15.390625 -143.644531 15.78125 -144.5625 16.5625 -145.34375 C 17.351562 -146.132812 18.273438 -146.53125 19.328125 -146.53125 L 29.390625 -146.53125 C 30.441406 -146.53125 31.359375 -146.132812 32.140625 -145.34375 C 32.929688 -144.5625 33.328125 -143.644531 33.328125 -142.59375 L 33.328125 -85.390625 L 100.78125 -85.390625 L 100.78125 -142.59375 C 100.78125 -143.644531 101.171875 -144.5625 101.953125 -145.34375 C 102.742188 -146.132812 103.664062 -146.53125 104.71875 -146.53125 L 114.78125 -146.53125 C 115.832031 -146.53125 116.75 -146.132812 117.53125 -145.34375 C 118.320312 -144.5625 118.71875 -143.644531 118.71875 -142.59375 Z M 118.71875 -3.9375 "/></g></g></g><g fill="#0b406a" fill-opacity="1"><g transform="translate(785.722556, 467.95518)"><g><path d="M 116.75 -3.9375 C 116.75 -3.019531 116.421875 -2.132812 115.765625 -1.28125 C 115.109375 -0.425781 114.253906 0 113.203125 0 L 102.15625 0 C 101.238281 0 100.453125 -0.390625 99.796875 -1.171875 C 99.140625 -1.960938 98.8125 -2.882812 98.8125 -3.9375 L 98.8125 -91.109375 C 98.8125 -102.546875 97.492188 -111.222656 94.859375 -117.140625 C 92.234375 -123.054688 88.222656 -127.066406 82.828125 -129.171875 C 77.441406 -131.273438 70.671875 -132.328125 62.515625 -132.328125 C 59.753906 -132.328125 56.398438 -132.257812 52.453125 -132.125 C 48.515625 -132 44.769531 -131.835938 41.21875 -131.640625 C 37.664062 -131.441406 35.035156 -131.28125 33.328125 -131.15625 L 33.328125 -3.9375 C 33.328125 -3.019531 33 -2.132812 32.34375 -1.28125 C 31.6875 -0.425781 30.832031 0 29.78125 0 L 18.9375 0 C 17.882812 0 17.03125 -0.390625 16.375 -1.171875 C 15.71875 -1.960938 15.390625 -2.882812 15.390625 -3.9375 L 15.390625 -138.84375 C 15.390625 -141.34375 15.816406 -143.050781 16.671875 -143.96875 C 17.523438 -144.882812 18.9375 -145.476562 20.90625 -145.75 C 24.457031 -146.269531 28.859375 -146.691406 34.109375 -147.015625 C 39.367188 -147.347656 44.660156 -147.613281 49.984375 -147.8125 C 55.316406 -148.007812 59.625 -148.109375 62.90625 -148.109375 C 74.738281 -148.109375 84.664062 -146.398438 92.6875 -142.984375 C 100.707031 -139.566406 106.722656 -133.710938 110.734375 -125.421875 C 114.742188 -117.140625 116.75 -105.703125 116.75 -91.109375 Z M 116.75 -3.9375 "/></g></g></g><g fill="#0b406a" fill-opacity="1"><g transform="translate(916.275137, 467.95518)"><g/></g></g><g fill="#0b406a" fill-opacity="1"><g transform="translate(964.985879, 467.95518)"><g><path d="M 100.578125 -5.125 C 100.578125 -3.945312 100.179688 -3.0625 99.390625 -2.46875 C 98.609375 -1.875 97.691406 -1.445312 96.640625 -1.1875 C 92.554688 -0.394531 88.179688 0.226562 83.515625 0.6875 C 78.847656 1.144531 72.3125 1.375 63.90625 1.375 C 57.851562 1.375 51.769531 0.421875 45.65625 -1.484375 C 39.539062 -3.390625 33.921875 -6.609375 28.796875 -11.140625 C 23.671875 -15.679688 19.5625 -21.894531 16.46875 -29.78125 C 13.375 -37.664062 11.828125 -47.59375 11.828125 -59.5625 L 11.828125 -86.96875 C 11.828125 -99.070312 13.375 -109.066406 16.46875 -116.953125 C 19.5625 -124.835938 23.671875 -131.046875 28.796875 -135.578125 C 33.921875 -140.117188 39.539062 -143.304688 45.65625 -145.140625 C 51.769531 -146.984375 57.851562 -147.90625 63.90625 -147.90625 C 70.082031 -147.90625 76.0625 -147.546875 81.84375 -146.828125 C 87.625 -146.109375 92.6875 -145.421875 97.03125 -144.765625 C 99.132812 -144.492188 100.1875 -143.632812 100.1875 -142.1875 L 100.1875 -132.140625 C 100.1875 -130.691406 99.398438 -129.96875 97.828125 -129.96875 C 97.691406 -129.96875 97.585938 -129.96875 97.515625 -129.96875 C 97.453125 -129.96875 97.359375 -129.96875 97.234375 -129.96875 C 94.859375 -130.226562 91.796875 -130.488281 88.046875 -130.75 C 84.304688 -131.019531 80.332031 -131.25 76.125 -131.4375 C 71.914062 -131.632812 67.90625 -131.734375 64.09375 -131.734375 C 57.65625 -131.734375 51.835938 -130.320312 46.640625 -127.5 C 41.453125 -124.675781 37.34375 -120.007812 34.3125 -113.5 C 31.289062 -106.988281 29.78125 -98.144531 29.78125 -86.96875 L 29.78125 -59.5625 C 29.78125 -48.519531 31.289062 -39.742188 34.3125 -33.234375 C 37.34375 -26.722656 41.453125 -22.019531 46.640625 -19.125 C 51.835938 -16.238281 57.65625 -14.796875 64.09375 -14.796875 C 69.75 -14.796875 75.695312 -14.988281 81.9375 -15.375 C 88.1875 -15.769531 93.085938 -16.101562 96.640625 -16.375 C 96.765625 -16.375 96.894531 -16.375 97.03125 -16.375 C 97.164062 -16.375 97.296875 -16.375 97.421875 -16.375 C 99.523438 -16.375 100.578125 -15.320312 100.578125 -13.21875 Z M 100.578125 -5.125 "/></g></g></g><g fill="#0b406a" fill-opacity="1"><g transform="translate(1072.464944, 467.95518)"><g><path d="M 118.53125 -60.546875 C 118.53125 -45.953125 116.226562 -34.117188 111.625 -25.046875 C 107.019531 -15.972656 100.738281 -9.300781 92.78125 -5.03125 C 84.832031 -0.757812 75.664062 1.375 65.28125 1.375 C 55.019531 1.375 45.847656 -0.757812 37.765625 -5.03125 C 29.679688 -9.300781 23.335938 -15.972656 18.734375 -25.046875 C 14.128906 -34.117188 11.828125 -45.953125 11.828125 -60.546875 L 11.828125 -85.984375 C 11.828125 -100.578125 14.128906 -112.410156 18.734375 -121.484375 C 23.335938 -130.554688 29.679688 -137.226562 37.765625 -141.5 C 45.847656 -145.769531 55.019531 -147.90625 65.28125 -147.90625 C 75.664062 -147.90625 84.832031 -145.769531 92.78125 -141.5 C 100.738281 -137.226562 107.019531 -130.554688 111.625 -121.484375 C 116.226562 -112.410156 118.53125 -100.578125 118.53125 -85.984375 Z M 100.390625 -60.546875 L 100.390625 -85.984375 C 100.390625 -102.554688 97.265625 -114.320312 91.015625 -121.28125 C 84.773438 -128.25 76.195312 -131.734375 65.28125 -131.734375 C 54.5 -131.734375 45.921875 -128.25 39.546875 -121.28125 C 33.171875 -114.320312 29.984375 -102.554688 29.984375 -85.984375 L 29.984375 -60.546875 C 29.984375 -43.984375 33.171875 -32.21875 39.546875 -25.25 C 45.921875 -18.28125 54.5 -14.796875 65.28125 -14.796875 C 76.0625 -14.796875 84.609375 -18.28125 90.921875 -25.25 C 97.234375 -32.21875 100.390625 -43.984375 100.390625 -60.546875 Z M 100.390625 -60.546875 "/></g></g></g><g fill="#0b406a" fill-opacity="1"><g transform="translate(1202.820325, 467.95518)"><g><path d="M 35.296875 -3.9375 C 35.296875 -3.019531 34.96875 -2.132812 34.3125 -1.28125 C 33.65625 -0.425781 32.800781 0 31.75 0 L 20.90625 0 C 19.988281 0 19.164062 -0.390625 18.4375 -1.171875 C 17.71875 -1.960938 17.359375 -2.882812 17.359375 -3.9375 L 17.359375 -142.78125 C 17.359375 -143.832031 17.6875 -144.71875 18.34375 -145.4375 C 19 -146.164062 19.851562 -146.53125 20.90625 -146.53125 L 31.75 -146.53125 C 34.113281 -146.53125 35.296875 -145.28125 35.296875 -142.78125 Z M 35.296875 -3.9375 "/></g></g></g><g fill="#0b406a" fill-opacity="1"><g transform="translate(1255.475232, 467.95518)"><g><path d="M 116.75 -3.9375 C 116.75 -3.019531 116.421875 -2.132812 115.765625 -1.28125 C 115.109375 -0.425781 114.253906 0 113.203125 0 L 102.15625 0 C 101.238281 0 100.453125 -0.390625 99.796875 -1.171875 C 99.140625 -1.960938 98.8125 -2.882812 98.8125 -3.9375 L 98.8125 -91.109375 C 98.8125 -102.546875 97.492188 -111.222656 94.859375 -117.140625 C 92.234375 -123.054688 88.222656 -127.066406 82.828125 -129.171875 C 77.441406 -131.273438 70.671875 -132.328125 62.515625 -132.328125 C 59.753906 -132.328125 56.398438 -132.257812 52.453125 -132.125 C 48.515625 -132 44.769531 -131.835938 41.21875 -131.640625 C 37.664062 -131.441406 35.035156 -131.28125 33.328125 -131.15625 L 33.328125 -3.9375 C 33.328125 -3.019531 33 -2.132812 32.34375 -1.28125 C 31.6875 -0.425781 30.832031 0 29.78125 0 L 18.9375 0 C 17.882812 0 17.03125 -0.390625 16.375 -1.171875 C 15.71875 -1.960938 15.390625 -2.882812 15.390625 -3.9375 L 15.390625 -138.84375 C 15.390625 -141.34375 15.816406 -143.050781 16.671875 -143.96875 C 17.523438 -144.882812 18.9375 -145.476562 20.90625 -145.75 C 24.457031 -146.269531 28.859375 -146.691406 34.109375 -147.015625 C 39.367188 -147.347656 44.660156 -147.613281 49.984375 -147.8125 C 55.316406 -148.007812 59.625 -148.109375 62.90625 -148.109375 C 74.738281 -148.109375 84.664062 -146.398438 92.6875 -142.984375 C 100.707031 -139.566406 106.722656 -133.710938 110.734375 -125.421875 C 114.742188 -117.140625 116.75 -105.703125 116.75 -91.109375 Z M 116.75 -3.9375 "/></g></g></g><g clip-path="url(#837471fc9e)"><path fill="#0b406a" d="M 151.128906 255.261719 C 159.621094 255.460938 167.300781 259.222656 172.5 265.972656 C 179.664062 275.140625 181.949219 288.457031 176.027344 298.390625 C 174.5625 301.03125 172.601562 303.570312 170.457031 305.753906 C 162.519531 313.980469 152.140625 316.777344 141.507812 313.195312 C 139.976562 312.714844 138.375 312.175781 136.910156 311.9375 C 133.957031 311.371094 131.464844 312.316406 129.351562 314.257812 C 127.824219 315.617188 126.375 317.074219 124.757812 318.324219 C 120.578125 321.714844 115.980469 324.625 113.621094 329.507812 C 111.34375 334.175781 112.738281 338.757812 113.484375 343.828125 C 114.648438 358.59375 100.199219 371.332031 86.140625 372.410156 C 69.050781 373.890625 53.84375 359.601562 54.050781 342.496094 C 53.875 323.679688 74.953125 307.234375 92.882812 314.804688 C 95.699219 315.980469 98.765625 317.785156 101.863281 317.757812 C 105.957031 317.808594 108.703125 314.820312 111.609375 312.148438 C 113.117188 310.789062 114.792969 309.609375 116.355469 308.324219 C 121.621094 304.167969 123.398438 299.5625 121.683594 292.816406 C 114.84375 273.96875 130.003906 255.339844 151.0625 255.261719 Z M 151.128906 255.261719 " fill-opacity="1" fill-rule="nonzero"/></g><g clip-path="url(#0de0a30803)"><path fill="#0b406a" d="M 120.03125 526.140625 C 119.839844 504.03125 142.246094 488.742188 161.242188 497.800781 C 162.445312 498.273438 163.679688 498.726562 164.824219 498.964844 C 169.328125 500.039062 171.863281 497.324219 174.914062 494.472656 C 176.03125 493.46875 177.214844 492.609375 178.453125 491.6875 C 186.308594 486.109375 184.308594 482.285156 181.375 474.421875 C 175.917969 457.492188 190.808594 438.945312 208 438.097656 C 224.992188 436.605469 240.546875 451.464844 239.871094 468.488281 C 239.300781 487.246094 220.484375 502.035156 202.546875 496.042969 C 200.386719 495.488281 197.792969 495.210938 195.859375 495.691406 C 191.203125 496.652344 188.398438 500.824219 184.75 503.566406 C 180.851562 506.339844 177.121094 509.132812 177.535156 514.5625 C 177.605469 515.96875 177.941406 517.542969 178.292969 519.039062 C 181.902344 531.050781 175.992188 542.839844 165.609375 549.640625 C 157.324219 555.324219 147.480469 556.449219 137.847656 551.988281 C 127.480469 547.457031 120.042969 537.671875 120.027344 526.203125 L 120.027344 526.136719 Z M 120.03125 526.140625 " fill-opacity="1" fill-rule="nonzero"/></g><path fill="#0b406a" d="M 149.242188 432.433594 C 134.078125 432.324219 121.164062 420.140625 120.105469 405.050781 C 118.59375 387.214844 134.082031 371.613281 151.832031 373.183594 C 162.734375 373.953125 172.640625 381.199219 176.886719 391.226562 C 185.34375 410.613281 170.496094 432.738281 149.300781 432.433594 L 149.238281 432.433594 Z M 149.242188 432.433594 " fill-opacity="1" fill-rule="nonzero"/></svg>